<svg width="45" height="45" viewBox="0 0 45 45" fill="none" xmlns="http://www.w3.org/2000/svg">
<path d="M16.041 28.9749L21.7411 28.9555L34.1825 16.633C34.6707 16.1448 34.9394 15.4964 34.9394 14.8066C34.9394 14.1169 34.6707 13.4684 34.1825 12.9802L32.1339 10.9316C31.1574 9.95511 29.4537 9.96027 28.4849 10.9277L16.041 23.2528V28.9749ZM30.3075 12.758L32.3599 14.8027L30.2971 16.8461L28.2486 14.7989L30.3075 12.758ZM18.6243 24.3301L26.4131 16.6149L28.4617 18.6635L20.6742 26.3761L18.6243 26.3825V24.3301Z" fill="#BCBCBC"/>
<path d="M13.4583 34.125H31.5417C32.9664 34.125 34.125 32.9664 34.125 31.5417V20.3455L31.5417 22.9288V31.5417H17.5374C17.5038 31.5417 17.469 31.5546 17.4354 31.5546C17.3928 31.5546 17.3501 31.543 17.3062 31.5417H13.4583V13.4583H22.3024L24.8857 10.875H13.4583C12.0336 10.875 10.875 12.0336 10.875 13.4583V31.5417C10.875 32.9664 12.0336 34.125 13.4583 34.125Z" fill="#BCBCBC"/>
</svg>
