<svg width="45" height="45" viewBox="0 0 45 45" fill="none" xmlns="http://www.w3.org/2000/svg">
<path d="M21.2083 19.9165H18.625V23.7915H14.75V26.3748H18.625V30.2498H21.2083V26.3748H25.0833V23.7915H21.2083V19.9165Z" fill="#BCBCBC"/>
<path d="M12.1673 35.4167H27.6673C29.092 35.4167 30.2507 34.258 30.2507 32.8333V17.3333C30.2507 15.9086 29.092 14.75 27.6673 14.75H12.1673C10.7426 14.75 9.58398 15.9086 9.58398 17.3333V32.8333C9.58398 34.258 10.7426 35.4167 12.1673 35.4167ZM12.1673 17.3333H27.6673L27.6699 32.8333H12.1673V17.3333Z" fill="#BCBCBC"/>
<path d="M32.834 9.5835H17.334V12.1668H32.834V27.6668H35.4173V12.1668C35.4173 10.7421 34.2587 9.5835 32.834 9.5835Z" fill="#BCBCBC"/>
</svg>
