<svg width="30" height="30" viewBox="0 0 30 30" fill="none" xmlns="http://www.w3.org/2000/svg">
<path d="M14.9997 13.6768C14.2692 13.6768 13.6768 14.2692 13.6768 14.9997C13.6768 15.73 14.2692 16.3224 14.9997 16.3224C15.73 16.3224 16.3224 15.73 16.3224 14.9997C16.3224 14.2692 15.73 13.6768 14.9997 13.6768Z" fill="#9B8C00"/>
<path d="M14.2717 12.6577C14.3517 12.9859 14.6474 13.2299 15.0002 13.2299C15.3527 13.2299 15.6483 12.9859 15.7287 12.6577L17.1874 7.83742C17.2358 7.65324 17.2617 7.46055 17.2617 7.26172C17.2617 6.01238 16.2493 5 15.0002 5C13.7511 5 12.7385 6.01238 12.7385 7.26172C12.7385 7.46055 12.7646 7.65324 12.8127 7.83742L14.2717 12.6577Z" fill="url(#paint0_radial_9240_11145)"/>
<path d="M15.7288 17.3417C15.6484 17.0135 15.3527 16.7701 15.0002 16.7701C14.6474 16.7701 14.3518 17.0135 14.2717 17.3417L12.8127 22.1629C12.7646 22.3468 12.7385 22.5394 12.7385 22.7386C12.7385 23.9874 13.7511 25.0001 15.0002 25.0001C16.2493 25.0001 17.2617 23.9874 17.2617 22.7386C17.2617 22.5394 17.2359 22.3468 17.1874 22.1629L15.7288 17.3417Z" fill="url(#paint1_radial_9240_11145)"/>
<path d="M8.38878 11.4819L12.829 13.8593C13.1182 14.0343 13.4994 13.9983 13.749 13.749C13.9983 13.4991 14.0346 13.1181 13.8596 12.829L11.4823 8.38874C11.3863 8.2248 11.2685 8.06995 11.1274 7.92917C10.2443 7.04581 8.81253 7.04581 7.92917 7.92917C7.04581 8.81222 7.04581 10.2443 7.92917 11.1273C8.06999 11.2678 8.22484 11.3863 8.38878 11.4819Z" fill="url(#paint2_radial_9240_11145)"/>
<path d="M21.6114 18.5181L17.1712 16.1408C16.8823 15.9654 16.5011 16.0021 16.2518 16.2514C16.0019 16.5012 15.9656 16.8822 16.1407 17.1714L18.5182 21.6116C18.6141 21.7758 18.7317 21.9304 18.8728 22.0708C19.7561 22.9542 21.1879 22.9542 22.071 22.0708C22.9546 21.1881 22.9543 19.756 22.071 18.8729C21.9302 18.7322 21.776 18.614 21.6114 18.5181Z" fill="url(#paint3_radial_9240_11145)"/>
<path d="M12.658 15.7287C12.9862 15.6484 13.2299 15.3527 13.2299 15.0002C13.2299 14.6474 12.9862 14.3518 12.658 14.2714L7.83742 12.8127C7.65328 12.7643 7.46055 12.7385 7.26172 12.7385C6.01266 12.7385 5 13.7511 5 15.0002C5 16.2493 6.0127 17.2617 7.26172 17.2617C7.46055 17.2617 7.65328 17.2356 7.83742 17.1874L12.658 15.7287Z" fill="url(#paint4_radial_9240_11145)"/>
<path d="M22.7386 12.7385C22.5394 12.7385 22.3468 12.7643 22.1629 12.8127L17.342 14.2714C17.0141 14.3518 16.7701 14.6474 16.7701 15.0002C16.7701 15.3527 17.0141 15.6484 17.342 15.7288L22.1629 17.1875C22.3468 17.2356 22.5394 17.2617 22.7386 17.2617C23.9876 17.2617 25.0001 16.2493 25.0001 15.0003C25.0001 13.7509 23.9877 12.7385 22.7386 12.7385Z" fill="url(#paint5_radial_9240_11145)"/>
<path d="M13.7489 16.2514C13.4994 16.0021 13.1181 15.9654 12.8289 16.1408L8.38874 18.5181C8.2248 18.614 8.06995 18.7322 7.92917 18.873C7.04581 19.756 7.04581 21.1881 7.92917 22.0709C8.81253 22.9543 10.2443 22.9543 11.1274 22.0709C11.2678 21.9304 11.3863 21.7759 11.4819 21.6117L13.8595 17.1714C14.0346 16.8822 13.9982 16.5012 13.7489 16.2514Z" fill="url(#paint6_radial_9240_11145)"/>
<path d="M16.2518 13.7484C16.5011 13.9982 16.8823 14.0343 17.1712 13.8592L21.6114 11.4822C21.776 11.3863 21.9302 11.2684 22.071 11.1273C22.9543 10.2443 22.9546 8.81222 22.071 7.92917C21.1879 7.04581 19.7558 7.04581 18.8728 7.92917C18.7317 8.06995 18.6141 8.2248 18.5182 8.38874L16.1407 12.8289C15.9656 13.1181 16.0019 13.4991 16.2518 13.7484Z" fill="url(#paint7_radial_9240_11145)"/>
<defs>
<radialGradient id="paint0_radial_9240_11145" cx="0" cy="0" r="1" gradientUnits="userSpaceOnUse" gradientTransform="translate(15 15) scale(9.5 9.50039)">
<stop stop-color="#DEC800"/>
<stop offset="1" stop-color="#AC9B00"/>
</radialGradient>
<radialGradient id="paint1_radial_9240_11145" cx="0" cy="0" r="1" gradientUnits="userSpaceOnUse" gradientTransform="translate(15 15) scale(9.5 9.50039)">
<stop stop-color="#DEC800"/>
<stop offset="1" stop-color="#AC9B00"/>
</radialGradient>
<radialGradient id="paint2_radial_9240_11145" cx="0" cy="0" r="1" gradientUnits="userSpaceOnUse" gradientTransform="translate(15 15) scale(9.5 9.50039)">
<stop stop-color="#DEC800"/>
<stop offset="1" stop-color="#AC9B00"/>
</radialGradient>
<radialGradient id="paint3_radial_9240_11145" cx="0" cy="0" r="1" gradientUnits="userSpaceOnUse" gradientTransform="translate(15 15) scale(9.5 9.50039)">
<stop stop-color="#DEC800"/>
<stop offset="1" stop-color="#AC9B00"/>
</radialGradient>
<radialGradient id="paint4_radial_9240_11145" cx="0" cy="0" r="1" gradientUnits="userSpaceOnUse" gradientTransform="translate(15 15) scale(9.5 9.50039)">
<stop stop-color="#DEC800"/>
<stop offset="1" stop-color="#AC9B00"/>
</radialGradient>
<radialGradient id="paint5_radial_9240_11145" cx="0" cy="0" r="1" gradientUnits="userSpaceOnUse" gradientTransform="translate(15 15) scale(9.5 9.50039)">
<stop stop-color="#DEC800"/>
<stop offset="1" stop-color="#AC9B00"/>
</radialGradient>
<radialGradient id="paint6_radial_9240_11145" cx="0" cy="0" r="1" gradientUnits="userSpaceOnUse" gradientTransform="translate(15 15) scale(9.5 9.50039)">
<stop stop-color="#DEC800"/>
<stop offset="1" stop-color="#AC9B00"/>
</radialGradient>
<radialGradient id="paint7_radial_9240_11145" cx="0" cy="0" r="1" gradientUnits="userSpaceOnUse" gradientTransform="translate(15 15) scale(9.5 9.50039)">
<stop stop-color="#DEC800"/>
<stop offset="1" stop-color="#AC9B00"/>
</radialGradient>
</defs>
</svg>
